<?xml version="1.0" encoding="UTF-8" standalone="no"?>
<svg
   xmlns:dc="http://purl.org/dc/elements/1.1/"
   xmlns:rdf="http://www.w3.org/1999/02/22-rdf-syntax-ns#"
   xmlns:svg="http://www.w3.org/2000/svg"
   xmlns="http://www.w3.org/2000/svg"
   width="400"
   height="400"
   version="1.1"
   id="svg8">
<rect y="0" x="0" height="100%" width="100%" id="bg" style="fill:#000000;fill-opacity:1" />
<line x1="0.0" y1="0.0" x2="-3.1086244689504383e-13" y2="1600.0" style="stroke:#ff;stroke-width:1px;stroke-opacity:1"/>
<line x1="-3.1086244689504383e-13" y1="1600.0" x2="-38399.99999999999" y2="-11200.000000000002" style="stroke:#c1;stroke-width:1px;stroke-opacity:1"/>
<line x1="-38399.99999999999" y1="-11200.000000000002" x2="2.719999999999999e7" y2="1.7601599999999993e7" style="stroke:#84;stroke-width:1px;stroke-opacity:1"/>
<line x1="2.719999999999999e7" y1="1.7601599999999993e7" x2="8.600396761599988e12" y2="1.9150182388799973e13" style="stroke:#47;stroke-width:1px;stroke-opacity:1"/>
<line x1="0.0" y1="39.99999999999999" x2="287.99999999999926" y2="1320.0000000000005" style="stroke:#ff;stroke-width:1px;stroke-opacity:1"/>
<line x1="287.99999999999926" y1="1320.0000000000005" x2="-24933.120000000024" y2="3982.39999999997" style="stroke:#c1;stroke-width:1px;stroke-opacity:1"/>
<line x1="-24933.120000000024" y1="3982.39999999997" x2="1.2347343423488023e7" y2="-3802500.5235199723" style="stroke:#84;stroke-width:1px;stroke-opacity:1"/>
<line x1="1.2347343423488023e7" y1="-3802500.5235199723" x2="2.7598283889720874e12" y2="-1.8780995503789624e12" style="stroke:#47;stroke-width:1px;stroke-opacity:1"/>
<line x1="0.0" y1="80.0" x2="511.99999999999983" y2="1039.9999999999998" style="stroke:#ff;stroke-width:1px;stroke-opacity:1"/>
<line x1="511.99999999999983" y1="1039.9999999999998" x2="-12165.11999999999" y2="10563.19999999999" style="stroke:#c1;stroke-width:1px;stroke-opacity:1"/>
<line x1="-12165.11999999999" y1="10563.19999999999" x2="910005.5674879955" y2="-5125608.463359987" style="stroke:#84;stroke-width:1px;stroke-opacity:1"/>
<line x1="910005.5674879955" y1="-5125608.463359987" x2="-5.08923324648415e11" y2="-1.8653956303368036e11" style="stroke:#47;stroke-width:1px;stroke-opacity:1"/>
<line x1="0.0" y1="120.0" x2="671.9999999999999" y2="760.0000000000002" style="stroke:#ff;stroke-width:1px;stroke-opacity:1"/>
<line x1="671.9999999999999" y1="760.0000000000002" x2="-1816.3200000000093" y2="10692.800000000005" style="stroke:#c1;stroke-width:1px;stroke-opacity:1"/>
<line x1="-1816.3200000000093" y1="10692.800000000005" x2="-2120666.1099520028" y2="-846153.6998400044" style="stroke:#84;stroke-width:1px;stroke-opacity:1"/>
<line x1="-2120666.1099520028" y1="-846153.6998400044" x2="7.563516942220145e10" y2="7.180011528092622e10" style="stroke:#47;stroke-width:1px;stroke-opacity:1"/>
<line x1="0.0" y1="160.0" x2="768.0000000000001" y2="480.00000000000045" style="stroke:#ff;stroke-width:1px;stroke-opacity:1"/>
<line x1="768.0000000000001" y1="480.00000000000045" x2="4884.479999999996" y2="6521.600000000012" style="stroke:#c1;stroke-width:1px;stroke-opacity:1"/>
<line x1="4884.479999999996" y1="6521.600000000012" x2="-360365.473792004" y2="1184696.3507200019" style="stroke:#84;stroke-width:1px;stroke-opacity:1"/>
<line x1="-360365.473792004" y1="1184696.3507200019" x2="-2.546048287956297e10" y2="-1.7083539356090275e10" style="stroke:#47;stroke-width:1px;stroke-opacity:1"/>
<line x1="0.0" y1="200.0" x2="799.9999999999999" y2="199.9999999999998" style="stroke:#ff;stroke-width:1px;stroke-opacity:1"/>
<line x1="799.9999999999999" y1="199.9999999999998" x2="7200.0" y2="199.99999999999528" style="stroke:#c1;stroke-width:1px;stroke-opacity:1"/>
<line x1="7200.0" y1="199.99999999999528" x2="979999.9999999991" y2="199.99999999868325" style="stroke:#84;stroke-width:1px;stroke-opacity:1"/>
<line x1="979999.9999999991" y1="199.99999999868325" x2="1.9200160799999954e10" y2="199.9999483943166" style="stroke:#47;stroke-width:1px;stroke-opacity:1"/>
<line x1="0.0" y1="240.0" x2="768.0000000000001" y2="-80.00000000000047" style="stroke:#ff;stroke-width:1px;stroke-opacity:1"/>
<line x1="768.0000000000001" y1="-80.00000000000047" x2="4884.479999999996" y2="-6121.600000000013" style="stroke:#c1;stroke-width:1px;stroke-opacity:1"/>
<line x1="4884.479999999996" y1="-6121.600000000013" x2="-360365.473792004" y2="-1184296.3507200019" style="stroke:#84;stroke-width:1px;stroke-opacity:1"/>
<line x1="-360365.473792004" y1="-1184296.3507200019" x2="-2.546048287956297e10" y2="1.7083539756090275e10" style="stroke:#47;stroke-width:1px;stroke-opacity:1"/>
<line x1="0.0" y1="280.0" x2="671.9999999999997" y2="-359.99999999999994" style="stroke:#ff;stroke-width:1px;stroke-opacity:1"/>
<line x1="671.9999999999997" y1="-359.99999999999994" x2="-1816.3200000000074" y2="-10292.799999999996" style="stroke:#c1;stroke-width:1px;stroke-opacity:1"/>
<line x1="-1816.3200000000074" y1="-10292.799999999996" x2="-2120666.109951999" y2="846553.699840003" style="stroke:#84;stroke-width:1px;stroke-opacity:1"/>
<line x1="-2120666.109951999" y1="846553.699840003" x2="7.563516942220119e10" y2="-7.180011488092598e10" style="stroke:#47;stroke-width:1px;stroke-opacity:1"/>
<line x1="0.0" y1="320.0" x2="512.0000000000001" y2="-640.0000000000002" style="stroke:#ff;stroke-width:1px;stroke-opacity:1"/>
<line x1="512.0000000000001" y1="-640.0000000000002" x2="-12165.120000000008" y2="-10163.200000000012" style="stroke:#c1;stroke-width:1px;stroke-opacity:1"/>
<line x1="-12165.120000000008" y1="-10163.200000000012" x2="910005.5674879989" y2="5126008.463360005" style="stroke:#84;stroke-width:1px;stroke-opacity:1"/>
<line x1="910005.5674879989" y1="5126008.463360005" x2="-5.0892332464841864e11" y2="1.8653956343368164e11" style="stroke:#47;stroke-width:1px;stroke-opacity:1"/>
<line x1="0.0" y1="360.0" x2="287.99999999999926" y2="-920.0000000000005" style="stroke:#ff;stroke-width:1px;stroke-opacity:1"/>
<line x1="287.99999999999926" y1="-920.0000000000005" x2="-24933.120000000024" y2="-3582.39999999997" style="stroke:#c1;stroke-width:1px;stroke-opacity:1"/>
<line x1="-24933.120000000024" y1="-3582.39999999997" x2="1.2347343423488023e7" y2="3802900.5235199723" style="stroke:#84;stroke-width:1px;stroke-opacity:1"/>
<line x1="1.2347343423488023e7" y1="3802900.5235199723" x2="2.7598283889720874e12" y2="1.8780995507789624e12" style="stroke:#47;stroke-width:1px;stroke-opacity:1"/>
<line x1="0.0" y1="400.0" x2="-3.1086244689504383e-13" y2="-1200.0" style="stroke:#ff;stroke-width:1px;stroke-opacity:1"/>
<line x1="-3.1086244689504383e-13" y1="-1200.0" x2="-38399.99999999999" y2="11600.000000000002" style="stroke:#c1;stroke-width:1px;stroke-opacity:1"/>
<line x1="-38399.99999999999" y1="11600.000000000002" x2="2.719999999999999e7" y2="-1.7601199999999993e7" style="stroke:#84;stroke-width:1px;stroke-opacity:1"/>
<line x1="2.719999999999999e7" y1="-1.7601199999999993e7" x2="8.600396761599988e12" y2="-1.9150182388399973e13" style="stroke:#47;stroke-width:1px;stroke-opacity:1"/>
<line x1="39.99999999999999" y1="0.0" x2="-248.00000000000094" y2="1280.0" style="stroke:#ff;stroke-width:1px;stroke-opacity:1"/>
<line x1="-248.00000000000094" y1="1280.0" x2="-19273.919999999995" y2="-19353.60000000004" style="stroke:#c1;stroke-width:1px;stroke-opacity:1"/>
<line x1="-19273.919999999995" y1="-19353.60000000004" x2="-62154.25587202951" y2="1.5231409684480028e7" style="stroke:#84;stroke-width:1px;stroke-opacity:1"/>
<line x1="-62154.25587202951" y1="1.5231409684480028e7" x2="-4.63971720794745e12" y2="-3.798922983626347e10" style="stroke:#47;stroke-width:1px;stroke-opacity:1"/>
<line x1="39.99999999999999" y1="39.99999999999999" x2="39.999999999999815" y2="1064.0000000000007" style="stroke:#ff;stroke-width:1px;stroke-opacity:1"/>
<line x1="39.999999999999815" y1="1064.0000000000007" x2="-14377.920000000015" y2="-5489.600000000009" style="stroke:#c1;stroke-width:1px;stroke-opacity:1"/>
<line x1="-14377.920000000015" y1="-5489.600000000009" x2="3602924.0673280032" y2="3317741.345280009" style="stroke:#84;stroke-width:1px;stroke-opacity:1"/>
<line x1="3602924.0673280032" y1="3317741.345280009" x2="3.947080259324276e10" y2="4.7808744199984015e11" style="stroke:#47;stroke-width:1px;stroke-opacity:1"/>
<line x1="39.99999999999999" y1="80.0" x2="263.99999999999994" y2="847.9999999999999" style="stroke:#ff;stroke-width:1px;stroke-opacity:1"/>
<line x1="263.99999999999994" y1="847.9999999999999" x2="-8276.15999999999" y2="1738.879999999996" style="stroke:#c1;stroke-width:1px;stroke-opacity:1"/>
<line x1="-8276.15999999999" y1="1738.879999999996" x2="1389582.7338239967" y2="-521671.72403199814" style="stroke:#84;stroke-width:1px;stroke-opacity:1"/>
<line x1="1389582.7338239967" y1="-521671.72403199814" x2="3.316068573408231e10" y2="-2.900318242564084e10" style="stroke:#47;stroke-width:1px;stroke-opacity:1"/>
<line x1="39.99999999999999" y1="120.0" x2="424.0" y2="632.0000000000003" style="stroke:#ff;stroke-width:1px;stroke-opacity:1"/>
<line x1="424.0" y1="632.0000000000003" x2="-2688.9600000000046" y2="3990.7200000000003" style="stroke:#c1;stroke-width:1px;stroke-opacity:1"/>
<line x1="-2688.9600000000046" y1="3990.7200000000003" x2="-120429.36473599968" y2="-437929.53804800083" style="stroke:#84;stroke-width:1px;stroke-opacity:1"/>
<line x1="-120429.36473599968" y1="-437929.53804800083" x2="-3.5481209294708796e9" y2="2.114051633872294e9" style="stroke:#47;stroke-width:1px;stroke-opacity:1"/>
<line x1="39.99999999999999" y1="160.0" x2="520.0000000000001" y2="416.00000000000017" style="stroke:#ff;stroke-width:1px;stroke-opacity:1"/>
<line x1="520.0000000000001" y1="416.00000000000017" x2="1154.8799999999987" y2="2924.800000000004" style="stroke:#c1;stroke-width:1px;stroke-opacity:1"/>
<line x1="1154.8799999999987" y1="2924.800000000004" x2="-130214.78451200048" y2="104234.28096000002" style="stroke:#84;stroke-width:1px;stroke-opacity:1"/>
<line x1="-130214.78451200048" y1="104234.28096000002" x2="1.2369772808894573e8" y2="-5.427041733303723e8" style="stroke:#47;stroke-width:1px;stroke-opacity:1"/>
<line x1="39.99999999999999" y1="200.0" x2="552.0" y2="199.99999999999986" style="stroke:#ff;stroke-width:1px;stroke-opacity:1"/>
<line x1="552.0" y1="199.99999999999986" x2="2518.08" y2="199.99999999999824" style="stroke:#c1;stroke-width:1px;stroke-opacity:1"/>
<line x1="2518.08" y1="199.99999999999824" x2="107509.89772800001" y2="199.9999999998363" style="stroke:#84;stroke-width:1px;stroke-opacity:1"/>
<line x1="107509.89772800001" y1="199.9999999998363" x2="2.303083230078766e8" y2="199.99999929724873" style="stroke:#47;stroke-width:1px;stroke-opacity:1"/>
<line x1="39.99999999999999" y1="240.0" x2="520.0000000000001" y2="-16.000000000000234" style="stroke:#ff;stroke-width:1px;stroke-opacity:1"/>
<line x1="520.0000000000001" y1="-16.000000000000234" x2="1154.8799999999987" y2="-2524.800000000004" style="stroke:#c1;stroke-width:1px;stroke-opacity:1"/>
<line x1="1154.8799999999987" y1="-2524.800000000004" x2="-130214.78451200048" y2="-103834.28096000002" style="stroke:#84;stroke-width:1px;stroke-opacity:1"/>
<line x1="-130214.78451200048" y1="-103834.28096000002" x2="1.2369772808894573e8" y2="5.427045733303723e8" style="stroke:#47;stroke-width:1px;stroke-opacity:1"/>
<line x1="39.99999999999999" y1="280.0" x2="423.99999999999983" y2="-232.0000000000001" style="stroke:#ff;stroke-width:1px;stroke-opacity:1"/>
<line x1="423.99999999999983" y1="-232.0000000000001" x2="-2688.960000000004" y2="-3590.719999999996" style="stroke:#c1;stroke-width:1px;stroke-opacity:1"/>
<line x1="-2688.960000000004" y1="-3590.719999999996" x2="-120429.36473599907" y2="438329.5380480001" style="stroke:#84;stroke-width:1px;stroke-opacity:1"/>
<line x1="-120429.36473599907" y1="438329.5380480001" x2="-3.548120929470869e9" y2="-2.1140512338722813e9" style="stroke:#47;stroke-width:1px;stroke-opacity:1"/>
<line x1="39.99999999999999" y1="320.0" x2="263.99999999999994" y2="-447.9999999999999" style="stroke:#ff;stroke-width:1px;stroke-opacity:1"/>
<line x1="263.99999999999994" y1="-447.9999999999999" x2="-8276.15999999999" y2="-1338.879999999996" style="stroke:#c1;stroke-width:1px;stroke-opacity:1"/>
<line x1="-8276.15999999999" y1="-1338.879999999996" x2="1389582.7338239967" y2="522071.72403199814" style="stroke:#84;stroke-width:1px;stroke-opacity:1"/>
<line x1="1389582.7338239967" y1="522071.72403199814" x2="3.316068573408231e10" y2="2.900318282564084e10" style="stroke:#47;stroke-width:1px;stroke-opacity:1"/>
<line x1="39.99999999999999" y1="360.0" x2="39.999999999999815" y2="-664.0000000000006" style="stroke:#ff;stroke-width:1px;stroke-opacity:1"/>
<line x1="39.999999999999815" y1="-664.0000000000006" x2="-14377.920000000015" y2="5889.600000000009" style="stroke:#c1;stroke-width:1px;stroke-opacity:1"/>
<line x1="-14377.920000000015" y1="5889.600000000009" x2="3602924.0673280032" y2="-3317341.345280009" style="stroke:#84;stroke-width:1px;stroke-opacity:1"/>
<line x1="3602924.0673280032" y1="-3317341.345280009" x2="3.947080259324276e10" y2="-4.7808744159984015e11" style="stroke:#47;stroke-width:1px;stroke-opacity:1"/>
<line x1="39.99999999999999" y1="400.0" x2="-248.00000000000094" y2="-880.0000000000001" style="stroke:#ff;stroke-width:1px;stroke-opacity:1"/>
<line x1="-248.00000000000094" y1="-880.0000000000001" x2="-19273.919999999995" y2="19753.60000000004" style="stroke:#c1;stroke-width:1px;stroke-opacity:1"/>
<line x1="-19273.919999999995" y1="19753.60000000004" x2="-62154.25587202951" y2="-1.5231009684480028e7" style="stroke:#84;stroke-width:1px;stroke-opacity:1"/>
<line x1="-62154.25587202951" y1="-1.5231009684480028e7" x2="-4.63971720794745e12" y2="3.798923023626347e10" style="stroke:#47;stroke-width:1px;stroke-opacity:1"/>
<line x1="80.0" y1="0.0" x2="-432.0000000000002" y2="959.9999999999997" style="stroke:#ff;stroke-width:1px;stroke-opacity:1"/>
<line x1="-432.0000000000002" y1="959.9999999999997" x2="-3483.519999999985" y2="-19212.79999999999" style="stroke:#c1;stroke-width:1px;stroke-opacity:1"/>
<line x1="-3483.519999999985" y1="-19212.79999999999" x2="-7265689.684991999" y2="2860297.4822399877" style="stroke:#84;stroke-width:1px;stroke-opacity:1"/>
<line x1="-7265689.684991999" y1="2860297.4822399877" x2="8.922599062111509e11" y2="-8.31246111771164e11" style="stroke:#47;stroke-width:1px;stroke-opacity:1"/>
<line x1="80.0" y1="39.99999999999999" x2="-144.00000000000023" y2="807.9999999999998" style="stroke:#ff;stroke-width:1px;stroke-opacity:1"/>
<line x1="-144.00000000000023" y1="807.9999999999998" x2="-4946.559999999998" y2="-8326.080000000005" style="stroke:#c1;stroke-width:1px;stroke-opacity:1"/>
<line x1="-4946.559999999998" y1="-8326.080000000005" x2="-924059.2066560031" y2="1755239.2913920023" style="stroke:#84;stroke-width:1px;stroke-opacity:1"/>
<line x1="-924059.2066560031" y1="1755239.2913920023" x2="-4.451815658482719e10" y2="-6.4884448884483444e10" style="stroke:#47;stroke-width:1px;stroke-opacity:1"/>
<line x1="80.0" y1="80.0" x2="79.99999999999989" y2="656.0" style="stroke:#ff;stroke-width:1px;stroke-opacity:1"/>
<line x1="79.99999999999989" y1="656.0" x2="-3790.719999999999" y2="-2108.7999999999993" style="stroke:#c1;stroke-width:1px;stroke-opacity:1"/>
<line x1="-3790.719999999999" y1="-2108.7999999999993" x2="211985.77356799968" y2="368630.97343999986" style="stroke:#84;stroke-width:1px;stroke-opacity:1"/>
<line x1="211985.77356799968" y1="368630.97343999986" x2="-1.8177632860829978e9" y2="3.121137628656064e9" style="stroke:#47;stroke-width:1px;stroke-opacity:1"/>
<line x1="80.0" y1="120.0" x2="239.9999999999997" y2="504.0000000000001" style="stroke:#ff;stroke-width:1px;stroke-opacity:1"/>
<line x1="239.9999999999997" y1="504.0000000000001" x2="-1736.320000000002" y2="606.3999999999962" style="stroke:#c1;stroke-width:1px;stroke-opacity:1"/>
<line x1="-1736.320000000002" y1="606.3999999999962" x2="71763.48364800023" y2="-31356.817919999798" style="stroke:#84;stroke-width:1px;stroke-opacity:1"/>
<line x1="71763.48364800023" y1="-31356.817919999798" x2="8.251006869203146e7" y2="-9.0332512928033e7" style="stroke:#47;stroke-width:1px;stroke-opacity:1"/>
<line x1="80.0" y1="160.0" x2="336.00000000000006" y2="352.00000000000006" style="stroke:#ff;stroke-width:1px;stroke-opacity:1"/>
<line x1="336.00000000000006" y1="352.00000000000006" x2="-12.16000000000026" y2="986.8800000000006" style="stroke:#c1;stroke-width:1px;stroke-opacity:1"/>
<line x1="-12.16000000000026" y1="986.8800000000006" x2="-11403.36537600002" y2="-6517.77843200001" style="stroke:#84;stroke-width:1px;stroke-opacity:1"/>
<line x1="-11403.36537600002" y1="-6517.77843200001" x2="1790270.8197502308" y2="3118113.5064603435" style="stroke:#47;stroke-width:1px;stroke-opacity:1"/>
<line x1="80.0" y1="200.0" x2="368.0" y2="199.99999999999994" style="stroke:#ff;stroke-width:1px;stroke-opacity:1"/>
<line x1="368.0" y1="199.99999999999994" x2="644.4799999999997" y2="199.99999999999955" style="stroke:#c1;stroke-width:1px;stroke-opacity:1"/>
<line x1="644.4799999999997" y1="199.99999999999955" x2="4031.249407999993" y2="199.99999999999156" style="stroke:#84;stroke-width:1px;stroke-opacity:1"/>
<line x1="4031.249407999993" y1="199.99999999999156" x2="293649.44052600604" y2="199.99999999870843" style="stroke:#47;stroke-width:1px;stroke-opacity:1"/>
<line x1="80.0" y1="240.0" x2="336.00000000000006" y2="47.99999999999996" style="stroke:#ff;stroke-width:1px;stroke-opacity:1"/>
<line x1="336.00000000000006" y1="47.99999999999996" x2="-12.16000000000026" y2="-586.8800000000006" style="stroke:#c1;stroke-width:1px;stroke-opacity:1"/>
<line x1="-12.16000000000026" y1="-586.8800000000006" x2="-11403.36537600002" y2="6917.77843200001" style="stroke:#84;stroke-width:1px;stroke-opacity:1"/>
<line x1="-11403.36537600002" y1="6917.77843200001" x2="1790270.8197502308" y2="-3117713.5064603435" style="stroke:#47;stroke-width:1px;stroke-opacity:1"/>
<line x1="80.0" y1="280.0" x2="239.99999999999994" y2="-103.99999999999983" style="stroke:#ff;stroke-width:1px;stroke-opacity:1"/>
<line x1="239.99999999999994" y1="-103.99999999999983" x2="-1736.319999999998" y2="-206.39999999999947" style="stroke:#c1;stroke-width:1px;stroke-opacity:1"/>
<line x1="-1736.319999999998" y1="-206.39999999999947" x2="71763.48364799985" y2="31756.817919999936" style="stroke:#84;stroke-width:1px;stroke-opacity:1"/>
<line x1="71763.48364799985" y1="31756.817919999936" x2="8.251006869203022e7" y2="9.033291292803293e7" style="stroke:#47;stroke-width:1px;stroke-opacity:1"/>
<line x1="80.0" y1="320.0" x2="79.99999999999989" y2="-256.0000000000002" style="stroke:#ff;stroke-width:1px;stroke-opacity:1"/>
<line x1="79.99999999999989" y1="-256.0000000000002" x2="-3790.7200000000025" y2="2508.8000000000015" style="stroke:#c1;stroke-width:1px;stroke-opacity:1"/>
<line x1="-3790.7200000000025" y1="2508.8000000000015" x2="211985.7735680001" y2="-368230.97344000055" style="stroke:#84;stroke-width:1px;stroke-opacity:1"/>
<line x1="211985.7735680001" y1="-368230.97344000055" x2="-1.8177632860830047e9" y2="-3.121137228656076e9" style="stroke:#47;stroke-width:1px;stroke-opacity:1"/>
<line x1="80.0" y1="360.0" x2="-144.00000000000023" y2="-407.99999999999983" style="stroke:#ff;stroke-width:1px;stroke-opacity:1"/>
<line x1="-144.00000000000023" y1="-407.99999999999983" x2="-4946.559999999998" y2="8726.080000000005" style="stroke:#c1;stroke-width:1px;stroke-opacity:1"/>
<line x1="-4946.559999999998" y1="8726.080000000005" x2="-924059.2066560031" y2="-1754839.2913920023" style="stroke:#84;stroke-width:1px;stroke-opacity:1"/>
<line x1="-924059.2066560031" y1="-1754839.2913920023" x2="-4.451815658482719e10" y2="6.4884449284483444e10" style="stroke:#47;stroke-width:1px;stroke-opacity:1"/>
<line x1="80.0" y1="400.0" x2="-432.0000000000002" y2="-559.9999999999997" style="stroke:#ff;stroke-width:1px;stroke-opacity:1"/>
<line x1="-432.0000000000002" y1="-559.9999999999997" x2="-3483.519999999985" y2="19612.79999999999" style="stroke:#c1;stroke-width:1px;stroke-opacity:1"/>
<line x1="-3483.519999999985" y1="19612.79999999999" x2="-7265689.684991999" y2="-2859897.4822399877" style="stroke:#84;stroke-width:1px;stroke-opacity:1"/>
<line x1="-7265689.684991999" y1="-2859897.4822399877" x2="8.922599062111509e11" y2="8.31246112171164e11" style="stroke:#47;stroke-width:1px;stroke-opacity:1"/>
<line x1="120.0" y1="0.0" x2="-552.0000000000001" y2="640.0" style="stroke:#ff;stroke-width:1px;stroke-opacity:1"/>
<line x1="-552.0000000000001" y1="640.0" x2="7558.080000000007" y2="-13235.200000000012" style="stroke:#c1;stroke-width:1px;stroke-opacity:1"/>
<line x1="7558.080000000007" y1="-13235.200000000012" x2="-2527145.155072003" y2="-3954291.0566400066" style="stroke:#84;stroke-width:1px;stroke-opacity:1"/>
<line x1="-2527145.155072003" y1="-3954291.0566400066" x2="-1.8501051956359726e11" y2="3.997745525109869e11" style="stroke:#47;stroke-width:1px;stroke-opacity:1"/>
<line x1="120.0" y1="39.99999999999999" x2="-264.00000000000017" y2="552.0000000000001" style="stroke:#ff;stroke-width:1px;stroke-opacity:1"/>
<line x1="-264.00000000000017" y1="552.0000000000001" x2="1947.8400000000004" y2="-6493.120000000006" style="stroke:#c1;stroke-width:1px;stroke-opacity:1"/>
<line x1="1947.8400000000004" y1="-6493.120000000006" x2="-834738.2133760015" y2="-467900.11443200056" style="stroke:#84;stroke-width:1px;stroke-opacity:1"/>
<line x1="-834738.2133760015" y1="-467900.11443200056" x2="9.560082180485134e9" y2="1.5633386968998226e10" style="stroke:#47;stroke-width:1px;stroke-opacity:1"/>
<line x1="120.0" y1="80.0" x2="-40.00000000000021" y2="463.99999999999994" style="stroke:#ff;stroke-width:1px;stroke-opacity:1"/>
<line x1="-40.00000000000021" y1="463.99999999999994" x2="-121.91999999999803" y2="-2454.4000000000015" style="stroke:#c1;stroke-width:1px;stroke-opacity:1"/>
<line x1="-121.91999999999803" y1="-2454.4000000000015" x2="-138724.13747200012" y2="34260.17791999977" style="stroke:#84;stroke-width:1px;stroke-opacity:1"/>
<line x1="-138724.13747200012" y1="34260.17791999977" x2="3.627965250479429e8" y2="-1.8927115358715343e8" style="stroke:#47;stroke-width:1px;stroke-opacity:1"/>
<line x1="120.0" y1="120.0" x2="119.99999999999996" y2="376.00000000000006" style="stroke:#ff;stroke-width:1px;stroke-opacity:1"/>
<line x1="119.99999999999996" y1="376.00000000000006" x2="-371.52000000000066" y2="-443.20000000000056" style="stroke:#c1;stroke-width:1px;stroke-opacity:1"/>
<line x1="-371.52000000000066" y1="-443.20000000000056" x2="-1621.4225920000058" y2="14824.066560000023" style="stroke:#84;stroke-width:1px;stroke-opacity:1"/>
<line x1="-1621.4225920000058" y1="14824.066560000023" x2="-4210794.849853259" y2="-1065344.2087718332" style="stroke:#47;stroke-width:1px;stroke-opacity:1"/>
<line x1="120.0" y1="160.0" x2="215.99999999999997" y2="288.00000000000006" style="stroke:#ff;stroke-width:1px;stroke-opacity:1"/>
<line x1="215.99999999999997" y1="288.00000000000006" x2="-29.760000000000186" y2="216.31999999999988" style="stroke:#c1;stroke-width:1px;stroke-opacity:1"/>
<line x1="-29.760000000000186" y1="216.31999999999988" x2="1170.4663040000016" y2="10.012672000000734" style="stroke:#84;stroke-width:1px;stroke-opacity:1"/>
<line x1="1170.4663040000016" y1="10.012672000000734" x2="18234.193247976873" y2="-7215.052000439809" style="stroke:#47;stroke-width:1px;stroke-opacity:1"/>
<line x1="120.0" y1="200.0" x2="248.00000000000006" y2="199.99999999999997" style="stroke:#ff;stroke-width:1px;stroke-opacity:1"/>
<line x1="248.00000000000006" y1="199.99999999999997" x2="166.08000000000004" y2="199.99999999999994" style="stroke:#c1;stroke-width:1px;stroke-opacity:1"/>
<line x1="166.08000000000004" y1="199.99999999999994" x2="143.01132799999996" y2="200.00000000000009" style="stroke:#84;stroke-width:1px;stroke-opacity:1"/>
<line x1="143.01132799999996" y1="200.00000000000009" x2="184.9541747264718" y2="199.9999999999998" style="stroke:#47;stroke-width:1px;stroke-opacity:1"/>
<line x1="120.0" y1="240.0" x2="215.99999999999997" y2="111.99999999999997" style="stroke:#ff;stroke-width:1px;stroke-opacity:1"/>
<line x1="215.99999999999997" y1="111.99999999999997" x2="-29.760000000000186" y2="183.68000000000012" style="stroke:#c1;stroke-width:1px;stroke-opacity:1"/>
<line x1="-29.760000000000186" y1="183.68000000000012" x2="1170.4663040000016" y2="389.98732799999925" style="stroke:#84;stroke-width:1px;stroke-opacity:1"/>
<line x1="1170.4663040000016" y1="389.98732799999925" x2="18234.193247976873" y2="7615.052000439809" style="stroke:#47;stroke-width:1px;stroke-opacity:1"/>
<line x1="120.0" y1="280.0" x2="119.99999999999996" y2="24.00000000000002" style="stroke:#ff;stroke-width:1px;stroke-opacity:1"/>
<line x1="119.99999999999996" y1="24.00000000000002" x2="-371.51999999999975" y2="843.2000000000003" style="stroke:#c1;stroke-width:1px;stroke-opacity:1"/>
<line x1="-371.51999999999975" y1="843.2000000000003" x2="-1621.4225920000156" y2="-14424.066559999997" style="stroke:#84;stroke-width:1px;stroke-opacity:1"/>
<line x1="-1621.4225920000156" y1="-14424.066559999997" x2="-4210794.849853242" y2="1065744.2087718367" style="stroke:#47;stroke-width:1px;stroke-opacity:1"/>
<line x1="120.0" y1="320.0" x2="-40.00000000000021" y2="-63.99999999999992" style="stroke:#ff;stroke-width:1px;stroke-opacity:1"/>
<line x1="-40.00000000000021" y1="-63.99999999999992" x2="-121.91999999999803" y2="2854.4000000000015" style="stroke:#c1;stroke-width:1px;stroke-opacity:1"/>
<line x1="-121.91999999999803" y1="2854.4000000000015" x2="-138724.13747200012" y2="-33860.17791999977" style="stroke:#84;stroke-width:1px;stroke-opacity:1"/>
<line x1="-138724.13747200012" y1="-33860.17791999977" x2="3.627965250479429e8" y2="1.8927155358715343e8" style="stroke:#47;stroke-width:1px;stroke-opacity:1"/>
<line x1="120.0" y1="360.0" x2="-264.00000000000017" y2="-152.00000000000009" style="stroke:#ff;stroke-width:1px;stroke-opacity:1"/>
<line x1="-264.00000000000017" y1="-152.00000000000009" x2="1947.8400000000004" y2="6893.120000000006" style="stroke:#c1;stroke-width:1px;stroke-opacity:1"/>
<line x1="1947.8400000000004" y1="6893.120000000006" x2="-834738.2133760015" y2="468300.11443200056" style="stroke:#84;stroke-width:1px;stroke-opacity:1"/>
<line x1="-834738.2133760015" y1="468300.11443200056" x2="9.560082180485134e9" y2="-1.5633386568998226e10" style="stroke:#47;stroke-width:1px;stroke-opacity:1"/>
<line x1="120.0" y1="400.0" x2="-552.0000000000001" y2="-240.00000000000003" style="stroke:#ff;stroke-width:1px;stroke-opacity:1"/>
<line x1="-552.0000000000001" y1="-240.00000000000003" x2="7558.080000000007" y2="13635.200000000012" style="stroke:#c1;stroke-width:1px;stroke-opacity:1"/>
<line x1="7558.080000000007" y1="13635.200000000012" x2="-2527145.155072003" y2="3954691.0566400066" style="stroke:#84;stroke-width:1px;stroke-opacity:1"/>
<line x1="-2527145.155072003" y1="3954691.0566400066" x2="-1.8501051956359726e11" y2="-3.997745521109869e11" style="stroke:#47;stroke-width:1px;stroke-opacity:1"/>
<line x1="160.0" y1="0.0" x2="-608.0000000000003" y2="319.99999999999983" style="stroke:#ff;stroke-width:1px;stroke-opacity:1"/>
<line x1="-608.0000000000003" y1="319.99999999999983" x2="12929.280000000017" y2="-3878.400000000007" style="stroke:#c1;stroke-width:1px;stroke-opacity:1"/>
<line x1="12929.280000000017" y1="-3878.400000000007" x2="2908184.455168007" y2="-2076603.822080006" style="stroke:#84;stroke-width:1px;stroke-opacity:1"/>
<line x1="2908184.455168007" y1="-2076603.822080006" x2="8.286518968185284e10" y2="-2.41572529241686e11" style="stroke:#47;stroke-width:1px;stroke-opacity:1"/>
<line x1="160.0" y1="39.99999999999999" x2="-320.0000000000003" y2="295.99999999999983" style="stroke:#ff;stroke-width:1px;stroke-opacity:1"/>
<line x1="-320.0000000000003" y1="295.99999999999983" x2="5383.680000000007" y2="-1956.799999999998" style="stroke:#c1;stroke-width:1px;stroke-opacity:1"/>
<line x1="5383.680000000007" y1="-1956.799999999998" x2="444535.04204800155" y2="-447166.44096000015" style="stroke:#84;stroke-width:1px;stroke-opacity:1"/>
<line x1="444535.04204800155" y1="-447166.44096000015" x2="-5.406189810836013e7" y2="-7.95122341419305e9" style="stroke:#47;stroke-width:1px;stroke-opacity:1"/>
<line x1="160.0" y1="80.0" x2="-96.00000000000004" y2="271.99999999999994" style="stroke:#ff;stroke-width:1px;stroke-opacity:1"/>
<line x1="-96.00000000000004" y1="271.99999999999994" x2="1808.6400000000006" y2="-772.4800000000004" style="stroke:#c1;stroke-width:1px;stroke-opacity:1"/>
<line x1="1808.6400000000006" y1="-772.4800000000004" x2="33000.10598400001" y2="-62494.80908800003" style="stroke:#84;stroke-width:1px;stroke-opacity:1"/>
<line x1="33000.10598400001" y1="-62494.80908800003" x2="-5.709568268038278e7" y2="-8.22557753093219e7" style="stroke:#47;stroke-width:1px;stroke-opacity:1"/>
<line x1="160.0" y1="120.0" x2="63.99999999999999" y2="248.0" style="stroke:#ff;stroke-width:1px;stroke-opacity:1"/>
<line x1="63.99999999999999" y1="248.0" x2="483.84000000000003" y2="-141.11999999999992" style="stroke:#c1;stroke-width:1px;stroke-opacity:1"/>
<line x1="483.84000000000003" y1="-141.11999999999992" x2="-555.9541759999977" y2="-3752.9400319999972" style="stroke:#84;stroke-width:1px;stroke-opacity:1"/>
<line x1="-555.9541759999977" y1="-3752.9400319999972" x2="-300925.3636075261" y2="119649.66098671837" style="stroke:#47;stroke-width:1px;stroke-opacity:1"/>
<line x1="160.0" y1="160.0" x2="160.0" y2="223.99999999999997" style="stroke:#ff;stroke-width:1px;stroke-opacity:1"/>
<line x1="160.0" y1="223.99999999999997" x2="180.48000000000002" y2="121.60000000000002" style="stroke:#c1;stroke-width:1px;stroke-opacity:1"/>
<line x1="180.48000000000002" y1="121.60000000000002" x2="44.68940800000005" y2="221.21471999999994" style="stroke:#84;stroke-width:1px;stroke-opacity:1"/>
<line x1="44.68940800000005" y1="221.21471999999994" x2="633.426312854241" y2="28.205171107430594" style="stroke:#47;stroke-width:1px;stroke-opacity:1"/>
<line x1="160.0" y1="200.0" x2="192.0" y2="200.0" style="stroke:#ff;stroke-width:1px;stroke-opacity:1"/>
<line x1="192.0" y1="200.0" x2="161.28" y2="200.0" style="stroke:#c1;stroke-width:1px;stroke-opacity:1"/>
<line x1="161.28" y1="200.0" x2="189.984768" y2="200.0" style="stroke:#84;stroke-width:1px;stroke-opacity:1"/>
<line x1="189.984768" y1="200.0" x2="162.0060974402765" y2="200.0" style="stroke:#47;stroke-width:1px;stroke-opacity:1"/>
<line x1="160.0" y1="240.0" x2="160.0" y2="176.00000000000003" style="stroke:#ff;stroke-width:1px;stroke-opacity:1"/>
<line x1="160.0" y1="176.00000000000003" x2="180.48000000000002" y2="278.4" style="stroke:#c1;stroke-width:1px;stroke-opacity:1"/>
<line x1="180.48000000000002" y1="278.4" x2="44.68940800000005" y2="178.78528000000006" style="stroke:#84;stroke-width:1px;stroke-opacity:1"/>
<line x1="44.68940800000005" y1="178.78528000000006" x2="633.426312854241" y2="371.7948288925694" style="stroke:#47;stroke-width:1px;stroke-opacity:1"/>
<line x1="160.0" y1="280.0" x2="64.00000000000006" y2="152.00000000000006" style="stroke:#ff;stroke-width:1px;stroke-opacity:1"/>
<line x1="64.00000000000006" y1="152.00000000000006" x2="483.83999999999963" y2="541.1199999999995" style="stroke:#c1;stroke-width:1px;stroke-opacity:1"/>
<line x1="483.83999999999963" y1="541.1199999999995" x2="-555.9541759999983" y2="4152.94003199999" style="stroke:#84;stroke-width:1px;stroke-opacity:1"/>
<line x1="-555.9541759999983" y1="4152.94003199999" x2="-300925.3636075249" y2="-119249.66098671834" style="stroke:#47;stroke-width:1px;stroke-opacity:1"/>
<line x1="160.0" y1="320.0" x2="-96.00000000000013" y2="128.0000000000002" style="stroke:#ff;stroke-width:1px;stroke-opacity:1"/>
<line x1="-96.00000000000013" y1="128.0000000000002" x2="1808.640000000002" y2="1172.4799999999973" style="stroke:#c1;stroke-width:1px;stroke-opacity:1"/>
<line x1="1808.640000000002" y1="1172.4799999999973" x2="33000.105984000234" y2="62894.80908799992" style="stroke:#84;stroke-width:1px;stroke-opacity:1"/>
<line x1="33000.105984000234" y1="62894.80908799992" x2="-5.7095682680382185e7" y2="8.22561753093223e7" style="stroke:#47;stroke-width:1px;stroke-opacity:1"/>
<line x1="160.0" y1="360.0" x2="-320.0000000000003" y2="104.00000000000018" style="stroke:#ff;stroke-width:1px;stroke-opacity:1"/>
<line x1="-320.0000000000003" y1="104.00000000000018" x2="5383.680000000007" y2="2356.799999999998" style="stroke:#c1;stroke-width:1px;stroke-opacity:1"/>
<line x1="5383.680000000007" y1="2356.799999999998" x2="444535.04204800155" y2="447566.44096000015" style="stroke:#84;stroke-width:1px;stroke-opacity:1"/>
<line x1="444535.04204800155" y1="447566.44096000015" x2="-5.406189810836013e7" y2="7.95122381419305e9" style="stroke:#47;stroke-width:1px;stroke-opacity:1"/>
<line x1="160.0" y1="400.0" x2="-608.0000000000003" y2="80.00000000000016" style="stroke:#ff;stroke-width:1px;stroke-opacity:1"/>
<line x1="-608.0000000000003" y1="80.00000000000016" x2="12929.280000000017" y2="4278.400000000007" style="stroke:#c1;stroke-width:1px;stroke-opacity:1"/>
<line x1="12929.280000000017" y1="4278.400000000007" x2="2908184.455168007" y2="2077003.822080006" style="stroke:#84;stroke-width:1px;stroke-opacity:1"/>
<line x1="2908184.455168007" y1="2077003.822080006" x2="8.286518968185284e10" y2="2.41572529641686e11" style="stroke:#47;stroke-width:1px;stroke-opacity:1"/>
<line x1="200.0" y1="0.0" x2="-599.9999999999999" y2="-8.881784197001252e-14" style="stroke:#ff;stroke-width:1px;stroke-opacity:1"/>
<line x1="-599.9999999999999" y1="-8.881784197001252e-14" x2="12199.999999999993" y2="6400.000000000002" style="stroke:#c1;stroke-width:1px;stroke-opacity:1"/>
<line x1="12199.999999999993" y1="6400.000000000002" x2="2111399.9999999977" y2="2976000.000000001" style="stroke:#84;stroke-width:1px;stroke-opacity:1"/>
<line x1="2111399.9999999977" y1="2976000.000000001" x2="-8.796440380000041e10" y2="2.5130035840000024e11" style="stroke:#47;stroke-width:1px;stroke-opacity:1"/>
<line x1="200.0" y1="39.99999999999999" x2="-312.0" y2="39.99999999999992" style="stroke:#ff;stroke-width:1px;stroke-opacity:1"/>
<line x1="-312.0" y1="39.99999999999992" x2="4930.879999999997" y2="3316.800000000003" style="stroke:#c1;stroke-width:1px;stroke-opacity:1"/>
<line x1="4930.879999999997" y1="3316.800000000003" x2="253535.6666879989" y2="589848.2713599997" style="stroke:#84;stroke-width:1px;stroke-opacity:1"/>
<line x1="253535.6666879989" y1="589848.2713599997" x2="-5.670122278031667e9" y2="5.975157557456471e9" style="stroke:#47;stroke-width:1px;stroke-opacity:1"/>
<line x1="200.0" y1="80.0" x2="-87.99999999999994" y2="79.99999999999996" style="stroke:#ff;stroke-width:1px;stroke-opacity:1"/>
<line x1="-87.99999999999994" y1="79.99999999999996" x2="1570.8799999999985" y2="1462.4000000000003" style="stroke:#c1;stroke-width:1px;stroke-opacity:1"/>
<line x1="1570.8799999999985" y1="1462.4000000000003" x2="5913.164287999891" y2="69303.95647999994" style="stroke:#84;stroke-width:1px;stroke-opacity:1"/>
<line x1="5913.164287999891" y1="69303.95647999994" x2="-9.485413110016087e7" y2="1.579217025284135e7" style="stroke:#47;stroke-width:1px;stroke-opacity:1"/>
<line x1="200.0" y1="120.0" x2="71.99999999999997" y2="119.99999999999997" style="stroke:#ff;stroke-width:1px;stroke-opacity:1"/>
<line x1="71.99999999999997" y1="119.99999999999997" x2="399.67999999999995" y2="529.6000000000001" style="stroke:#c1;stroke-width:1px;stroke-opacity:1"/>
<line x1="399.67999999999995" y1="529.6000000000001" x2="-1175.2811520000014" y2="2752.5811199999994" style="stroke:#84;stroke-width:1px;stroke-opacity:1"/>
<line x1="-1175.2811520000014" y1="2752.5811199999994" x2="-92285.44254267999" y2="-140300.66813148206" style="stroke:#47;stroke-width:1px;stroke-opacity:1"/>
<line x1="200.0" y1="160.0" x2="168.00000000000003" y2="160.0" style="stroke:#ff;stroke-width:1px;stroke-opacity:1"/>
<line x1="168.00000000000003" y1="160.0" x2="188.48" y2="211.20000000000002" style="stroke:#c1;stroke-width:1px;stroke-opacity:1"/>
<line x1="188.48" y1="211.20000000000002" x2="200.14540800000003" y2="154.83903999999998" style="stroke:#84;stroke-width:1px;stroke-opacity:1"/>
<line x1="200.14540800000003" y1="154.83903999999998" x2="159.21017670729728" y2="159.73732940513278" style="stroke:#47;stroke-width:1px;stroke-opacity:1"/>
<line x1="200.0" y1="200.0" x2="200.0" y2="200.0" style="stroke:#ff;stroke-width:1px;stroke-opacity:1"/>
<line x1="200.0" y1="200.0" x2="200.0" y2="200.0" style="stroke:#c1;stroke-width:1px;stroke-opacity:1"/>
<line x1="200.0" y1="200.0" x2="200.0" y2="200.0" style="stroke:#84;stroke-width:1px;stroke-opacity:1"/>
<line x1="200.0" y1="200.0" x2="200.0" y2="200.0" style="stroke:#47;stroke-width:1px;stroke-opacity:1"/>
<line x1="200.0" y1="240.0" x2="168.00000000000003" y2="240.0" style="stroke:#ff;stroke-width:1px;stroke-opacity:1"/>
<line x1="168.00000000000003" y1="240.0" x2="188.48" y2="188.8" style="stroke:#c1;stroke-width:1px;stroke-opacity:1"/>
<line x1="188.48" y1="188.8" x2="200.14540800000003" y2="245.16096" style="stroke:#84;stroke-width:1px;stroke-opacity:1"/>
<line x1="200.14540800000003" y1="245.16096" x2="159.21017670729728" y2="240.26267059486722" style="stroke:#47;stroke-width:1px;stroke-opacity:1"/>
<line x1="200.0" y1="280.0" x2="72.00000000000004" y2="280.0" style="stroke:#ff;stroke-width:1px;stroke-opacity:1"/>
<line x1="72.00000000000004" y1="280.0" x2="399.6799999999998" y2="-129.59999999999985" style="stroke:#c1;stroke-width:1px;stroke-opacity:1"/>
<line x1="399.6799999999998" y1="-129.59999999999985" x2="-1175.281152" y2="-2352.5811199999966" style="stroke:#84;stroke-width:1px;stroke-opacity:1"/>
<line x1="-1175.281152" y1="-2352.5811199999966" x2="-92285.44254267984" y2="140700.6681314818" style="stroke:#47;stroke-width:1px;stroke-opacity:1"/>
<line x1="200.0" y1="320.0" x2="-88.00000000000009" y2="320.00000000000006" style="stroke:#ff;stroke-width:1px;stroke-opacity:1"/>
<line x1="-88.00000000000009" y1="320.00000000000006" x2="1570.8799999999997" y2="-1062.4000000000017" style="stroke:#c1;stroke-width:1px;stroke-opacity:1"/>
<line x1="1570.8799999999997" y1="-1062.4000000000017" x2="5913.164287999902" y2="-68903.95648000005" style="stroke:#84;stroke-width:1px;stroke-opacity:1"/>
<line x1="5913.164287999902" y1="-68903.95648000005" x2="-9.485413110016137e7" y2="-1.5791770252841435e7" style="stroke:#47;stroke-width:1px;stroke-opacity:1"/>
<line x1="200.0" y1="360.0" x2="-312.0" y2="360.00000000000006" style="stroke:#ff;stroke-width:1px;stroke-opacity:1"/>
<line x1="-312.0" y1="360.00000000000006" x2="4930.879999999997" y2="-2916.800000000003" style="stroke:#c1;stroke-width:1px;stroke-opacity:1"/>
<line x1="4930.879999999997" y1="-2916.800000000003" x2="253535.6666879989" y2="-589448.2713599997" style="stroke:#84;stroke-width:1px;stroke-opacity:1"/>
<line x1="253535.6666879989" y1="-589448.2713599997" x2="-5.670122278031667e9" y2="-5.975157157456471e9" style="stroke:#47;stroke-width:1px;stroke-opacity:1"/>
<line x1="200.0" y1="400.0" x2="-599.9999999999999" y2="400.0000000000001" style="stroke:#ff;stroke-width:1px;stroke-opacity:1"/>
<line x1="-599.9999999999999" y1="400.0000000000001" x2="12199.999999999993" y2="-6000.000000000002" style="stroke:#c1;stroke-width:1px;stroke-opacity:1"/>
<line x1="12199.999999999993" y1="-6000.000000000002" x2="2111399.9999999977" y2="-2975600.000000001" style="stroke:#84;stroke-width:1px;stroke-opacity:1"/>
<line x1="2111399.9999999977" y1="-2975600.000000001" x2="-8.796440380000041e10" y2="-2.5130035800000024e11" style="stroke:#47;stroke-width:1px;stroke-opacity:1"/>
<line x1="240.0" y1="0.0" x2="-528.0000000000003" y2="-320.0000000000001" style="stroke:#ff;stroke-width:1px;stroke-opacity:1"/>
<line x1="-528.0000000000003" y1="-320.0000000000001" x2="5431.680000000006" y2="15142.400000000018" style="stroke:#c1;stroke-width:1px;stroke-opacity:1"/>
<line x1="5431.680000000006" y1="15142.400000000018" x2="-3917856.842752007" y2="3126954.2092800066" style="stroke:#84;stroke-width:1px;stroke-opacity:1"/>
<line x1="-3917856.842752007" y1="3126954.2092800066" x2="1.1149155099571156e11" y2="-4.9003202901092633e11" style="stroke:#47;stroke-width:1px;stroke-opacity:1"/>
<line x1="240.0" y1="39.99999999999999" x2="-240.00000000000023" y2="-216.0" style="stroke:#ff;stroke-width:1px;stroke-opacity:1"/>
<line x1="-240.00000000000023" y1="-216.0" x2="650.8800000000034" y2="7361.600000000006" style="stroke:#c1;stroke-width:1px;stroke-opacity:1"/>
<line x1="650.8800000000034" y1="7361.600000000006" x2="-1021464.4357120027" y2="129200.88832000108" style="stroke:#84;stroke-width:1px;stroke-opacity:1"/>
<line x1="-1021464.4357120027" y1="129200.88832000108" x2="2.054314004022752e10" y2="-5.271824750872039e9" style="stroke:#47;stroke-width:1px;stroke-opacity:1"/>
<line x1="240.0" y1="80.0" x2="-16.000000000000057" y2="-112.00000000000001" style="stroke:#ff;stroke-width:1px;stroke-opacity:1"/>
<line x1="-16.000000000000057" y1="-112.00000000000001" x2="-773.7599999999996" y2="2775.6800000000003" style="stroke:#c1;stroke-width:1px;stroke-opacity:1"/>
<line x1="-773.7599999999996" y1="2775.6800000000003" x2="-113478.37849600003" y2="-100243.76627199996" style="stroke:#84;stroke-width:1px;stroke-opacity:1"/>
<line x1="-113478.37849600003" y1="-100243.76627199996" x2="5.667671109151362e7" y2="4.5673145919328743e8" style="stroke:#47;stroke-width:1px;stroke-opacity:1"/>
<line x1="240.0" y1="120.0" x2="143.99999999999994" y2="-8.000000000000007" style="stroke:#ff;stroke-width:1px;stroke-opacity:1"/>
<line x1="143.99999999999994" y1="-8.000000000000007" x2="-562.5600000000001" y2="585.9200000000001" style="stroke:#c1;stroke-width:1px;stroke-opacity:1"/>
<line x1="-562.5600000000001" y1="585.9200000000001" x2="8891.270143999993" y2="-11651.486208000011" style="stroke:#84;stroke-width:1px;stroke-opacity:1"/>
<line x1="8891.270143999993" y1="-11651.486208000011" x2="-1298150.9724485758" y2="-4120058.7296647243" style="stroke:#47;stroke-width:1px;stroke-opacity:1"/>
<line x1="240.0" y1="160.0" x2="240.0" y2="96.00000000000004" style="stroke:#ff;stroke-width:1px;stroke-opacity:1"/>
<line x1="240.0" y1="96.00000000000004" x2="55.68000000000018" y2="-6.399999999999917" style="stroke:#c1;stroke-width:1px;stroke-opacity:1"/>
<line x1="55.68000000000018" y1="-6.399999999999917" x2="-195.45395199999996" y2="1351.5059199999982" style="stroke:#84;stroke-width:1px;stroke-opacity:1"/>
<line x1="-195.45395199999996" y1="1351.5059199999982" x2="-23151.641112852485" y2="-18054.702672615793" style="stroke:#47;stroke-width:1px;stroke-opacity:1"/>
<line x1="240.0" y1="200.0" x2="272.0" y2="200.0" style="stroke:#ff;stroke-width:1px;stroke-opacity:1"/>
<line x1="272.0" y1="200.0" x2="343.6799999999999" y2="200.0" style="stroke:#c1;stroke-width:1px;stroke-opacity:1"/>
<line x1="343.6799999999999" y1="200.0" x2="652.8788479999996" y2="200.0" style="stroke:#84;stroke-width:1px;stroke-opacity:1"/>
<line x1="652.8788479999996" y1="200.0" x2="4341.985019316135" y2="200.0" style="stroke:#47;stroke-width:1px;stroke-opacity:1"/>
<line x1="240.0" y1="240.0" x2="240.0" y2="303.99999999999994" style="stroke:#ff;stroke-width:1px;stroke-opacity:1"/>
<line x1="240.0" y1="303.99999999999994" x2="55.68000000000018" y2="406.3999999999999" style="stroke:#c1;stroke-width:1px;stroke-opacity:1"/>
<line x1="55.68000000000018" y1="406.3999999999999" x2="-195.45395199999996" y2="-951.5059199999982" style="stroke:#84;stroke-width:1px;stroke-opacity:1"/>
<line x1="-195.45395199999996" y1="-951.5059199999982" x2="-23151.641112852485" y2="18454.702672615793" style="stroke:#47;stroke-width:1px;stroke-opacity:1"/>
<line x1="240.0" y1="280.0" x2="144.00000000000006" y2="407.99999999999994" style="stroke:#ff;stroke-width:1px;stroke-opacity:1"/>
<line x1="144.00000000000006" y1="407.99999999999994" x2="-562.5599999999991" y2="-185.91999999999905" style="stroke:#c1;stroke-width:1px;stroke-opacity:1"/>
<line x1="-562.5599999999991" y1="-185.91999999999905" x2="8891.270143999991" y2="12051.486207999964" style="stroke:#84;stroke-width:1px;stroke-opacity:1"/>
<line x1="8891.270143999991" y1="12051.486207999964" x2="-1298150.9724485541" y2="4120458.729664707" style="stroke:#47;stroke-width:1px;stroke-opacity:1"/>
<line x1="240.0" y1="320.0" x2="-16.000000000000103" y2="511.99999999999994" style="stroke:#ff;stroke-width:1px;stroke-opacity:1"/>
<line x1="-16.000000000000103" y1="511.99999999999994" x2="-773.7599999999996" y2="-2375.6800000000003" style="stroke:#c1;stroke-width:1px;stroke-opacity:1"/>
<line x1="-773.7599999999996" y1="-2375.6800000000003" x2="-113478.37849600003" y2="100643.76627199996" style="stroke:#84;stroke-width:1px;stroke-opacity:1"/>
<line x1="-113478.37849600003" y1="100643.76627199996" x2="5.667671109151362e7" y2="-4.5673105919328743e8" style="stroke:#47;stroke-width:1px;stroke-opacity:1"/>
<line x1="240.0" y1="360.0" x2="-240.00000000000023" y2="616.0" style="stroke:#ff;stroke-width:1px;stroke-opacity:1"/>
<line x1="-240.00000000000023" y1="616.0" x2="650.8800000000034" y2="-6961.600000000006" style="stroke:#c1;stroke-width:1px;stroke-opacity:1"/>
<line x1="650.8800000000034" y1="-6961.600000000006" x2="-1021464.4357120027" y2="-128800.88832000108" style="stroke:#84;stroke-width:1px;stroke-opacity:1"/>
<line x1="-1021464.4357120027" y1="-128800.88832000108" x2="2.054314004022752e10" y2="5.271825150872039e9" style="stroke:#47;stroke-width:1px;stroke-opacity:1"/>
<line x1="240.0" y1="400.0" x2="-528.0000000000003" y2="720.0000000000001" style="stroke:#ff;stroke-width:1px;stroke-opacity:1"/>
<line x1="-528.0000000000003" y1="720.0000000000001" x2="5431.680000000006" y2="-14742.400000000018" style="stroke:#c1;stroke-width:1px;stroke-opacity:1"/>
<line x1="5431.680000000006" y1="-14742.400000000018" x2="-3917856.842752007" y2="-3126554.2092800066" style="stroke:#84;stroke-width:1px;stroke-opacity:1"/>
<line x1="-3917856.842752007" y1="-3126554.2092800066" x2="1.1149155099571156e11" y2="4.9003202941092633e11" style="stroke:#47;stroke-width:1px;stroke-opacity:1"/>
<line x1="280.0" y1="0.0" x2="-392.00000000000006" y2="-639.9999999999997" style="stroke:#ff;stroke-width:1px;stroke-opacity:1"/>
<line x1="-392.00000000000006" y1="-639.9999999999997" x2="-6822.719999999981" y2="19891.199999999993" style="stroke:#c1;stroke-width:1px;stroke-opacity:1"/>
<line x1="-6822.719999999981" y1="19891.199999999993" x2="-6768215.224832002" y2="-5531431.362559983" style="stroke:#84;stroke-width:1px;stroke-opacity:1"/>
<line x1="-6768215.224832002" y1="-5531431.362559983" x2="3.042499827696084e11" y2="1.4976151173003696e12" style="stroke:#47;stroke-width:1px;stroke-opacity:1"/>
<line x1="280.0" y1="39.99999999999999" x2="-104.00000000000009" y2="-471.9999999999999" style="stroke:#ff;stroke-width:1px;stroke-opacity:1"/>
<line x1="-104.00000000000009" y1="-471.9999999999999" x2="-6903.359999999996" y2="8211.519999999999" style="stroke:#c1;stroke-width:1px;stroke-opacity:1"/>
<line x1="-6903.359999999996" y1="8211.519999999999" x2="-274254.5884160011" y2="-2276308.4282879992" style="stroke:#84;stroke-width:1px;stroke-opacity:1"/>
<line x1="-274254.5884160011" y1="-2276308.4282879992" x2="-1.0214330577927383e11" y2="2.4991927388453537e10" style="stroke:#47;stroke-width:1px;stroke-opacity:1"/>
<line x1="280.0" y1="80.0" x2="119.99999999999997" y2="-303.99999999999983" style="stroke:#ff;stroke-width:1px;stroke-opacity:1"/>
<line x1="119.99999999999997" y1="-303.99999999999983" x2="-4672.319999999995" y2="1692.7999999999986" style="stroke:#c1;stroke-width:1px;stroke-opacity:1"/>
<line x1="-4672.319999999995" y1="1692.7999999999986" x2="430501.006847999" y2="-290855.9718399996" style="stroke:#84;stroke-width:1px;stroke-opacity:1"/>
<line x1="430501.006847999" y1="-290855.9718399996" x2="2.0089078350134995e9" y2="-5.009667029274986e9" style="stroke:#47;stroke-width:1px;stroke-opacity:1"/>
<line x1="280.0" y1="120.0" x2="279.99999999999994" y2="-135.99999999999994" style="stroke:#ff;stroke-width:1px;stroke-opacity:1"/>
<line x1="279.99999999999994" y1="-135.99999999999994" x2="-1849.9199999999998" y2="-955.199999999999" style="stroke:#c1;stroke-width:1px;stroke-opacity:1"/>
<line x1="-1849.9199999999998" y1="-955.199999999999" x2="57633.69932800001" y2="94842.70335999994" style="stroke:#84;stroke-width:1px;stroke-opacity:1"/>
<line x1="57633.69932800001" y1="94842.70335999994" x2="-1.1317194961579674e8" y2="2.174273427346934e8" style="stroke:#47;stroke-width:1px;stroke-opacity:1"/>
<line x1="280.0" y1="160.0" x2="375.99999999999994" y2="32.00000000000007" style="stroke:#ff;stroke-width:1px;stroke-opacity:1"/>
<line x1="375.99999999999994" y1="32.00000000000007" x2="335.03999999999996" y2="-1022.7199999999989" style="stroke:#c1;stroke-width:1px;stroke-opacity:1"/>
<line x1="335.03999999999996" y1="-1022.7199999999989" x2="-29256.167935999958" y2="-6444.644351999988" style="stroke:#84;stroke-width:1px;stroke-opacity:1"/>
<line x1="-29256.167935999958" y1="-6444.644351999988" x2="1.6470570618185319e7" y2="7829190.396300214" style="stroke:#47;stroke-width:1px;stroke-opacity:1"/>
<line x1="280.0" y1="200.0" x2="407.99999999999994" y2="200.0" style="stroke:#ff;stroke-width:1px;stroke-opacity:1"/>
<line x1="407.99999999999994" y1="200.0" x2="1145.2799999999993" y2="200.0" style="stroke:#c1;stroke-width:1px;stroke-opacity:1"/>
<line x1="1145.2799999999993" y1="200.0" x2="18151.08556799997" y2="200.0" style="stroke:#84;stroke-width:1px;stroke-opacity:1"/>
<line x1="18151.08556799997" y1="200.0" x2="6445109.461393137" y2="200.0" style="stroke:#47;stroke-width:1px;stroke-opacity:1"/>
<line x1="280.0" y1="240.0" x2="375.99999999999994" y2="367.99999999999994" style="stroke:#ff;stroke-width:1px;stroke-opacity:1"/>
<line x1="375.99999999999994" y1="367.99999999999994" x2="335.03999999999996" y2="1422.719999999999" style="stroke:#c1;stroke-width:1px;stroke-opacity:1"/>
<line x1="335.03999999999996" y1="1422.719999999999" x2="-29256.167935999958" y2="6844.644351999988" style="stroke:#84;stroke-width:1px;stroke-opacity:1"/>
<line x1="-29256.167935999958" y1="6844.644351999988" x2="1.6470570618185319e7" y2="-7828790.396300214" style="stroke:#47;stroke-width:1px;stroke-opacity:1"/>
<line x1="280.0" y1="280.0" x2="280.0" y2="536.0" style="stroke:#ff;stroke-width:1px;stroke-opacity:1"/>
<line x1="280.0" y1="536.0" x2="-1849.9199999999985" y2="1355.1999999999996" style="stroke:#c1;stroke-width:1px;stroke-opacity:1"/>
<line x1="-1849.9199999999985" y1="1355.1999999999996" x2="57633.69932799987" y2="-94442.70335999991" style="stroke:#84;stroke-width:1px;stroke-opacity:1"/>
<line x1="57633.69932799987" y1="-94442.70335999991" x2="-1.1317194961579694e8" y2="-2.1742694273469284e8" style="stroke:#47;stroke-width:1px;stroke-opacity:1"/>
<line x1="280.0" y1="320.0" x2="119.9999999999998" y2="703.9999999999999" style="stroke:#ff;stroke-width:1px;stroke-opacity:1"/>
<line x1="119.9999999999998" y1="703.9999999999999" x2="-4672.319999999999" y2="-1292.8000000000022" style="stroke:#c1;stroke-width:1px;stroke-opacity:1"/>
<line x1="-4672.319999999999" y1="-1292.8000000000022" x2="430501.00684799947" y2="291255.97184000054" style="stroke:#84;stroke-width:1px;stroke-opacity:1"/>
<line x1="430501.00684799947" y1="291255.97184000054" x2="2.0089078350134974e9" y2="5.009667429275007e9" style="stroke:#47;stroke-width:1px;stroke-opacity:1"/>
<line x1="280.0" y1="360.0" x2="-104.00000000000009" y2="871.9999999999999" style="stroke:#ff;stroke-width:1px;stroke-opacity:1"/>
<line x1="-104.00000000000009" y1="871.9999999999999" x2="-6903.359999999996" y2="-7811.519999999999" style="stroke:#c1;stroke-width:1px;stroke-opacity:1"/>
<line x1="-6903.359999999996" y1="-7811.519999999999" x2="-274254.5884160011" y2="2276708.4282879992" style="stroke:#84;stroke-width:1px;stroke-opacity:1"/>
<line x1="-274254.5884160011" y1="2276708.4282879992" x2="-1.0214330577927383e11" y2="-2.4991926988453537e10" style="stroke:#47;stroke-width:1px;stroke-opacity:1"/>
<line x1="280.0" y1="400.0" x2="-392.00000000000006" y2="1039.9999999999998" style="stroke:#ff;stroke-width:1px;stroke-opacity:1"/>
<line x1="-392.00000000000006" y1="1039.9999999999998" x2="-6822.719999999981" y2="-19491.199999999993" style="stroke:#c1;stroke-width:1px;stroke-opacity:1"/>
<line x1="-6822.719999999981" y1="-19491.199999999993" x2="-6768215.224832002" y2="5531831.362559983" style="stroke:#84;stroke-width:1px;stroke-opacity:1"/>
<line x1="-6768215.224832002" y1="5531831.362559983" x2="3.042499827696084e11" y2="-1.4976151169003696e12" style="stroke:#47;stroke-width:1px;stroke-opacity:1"/>
<line x1="320.0" y1="0.0" x2="-192.00000000000017" y2="-960.0000000000001" style="stroke:#ff;stroke-width:1px;stroke-opacity:1"/>
<line x1="-192.00000000000017" y1="-960.0000000000001" x2="-23518.72000000001" y2="18188.800000000003" style="stroke:#c1;stroke-width:1px;stroke-opacity:1"/>
<line x1="-23518.72000000001" y1="18188.800000000003" x2="4779935.059967998" y2="-1.7066852413440004e7" style="stroke:#84;stroke-width:1px;stroke-opacity:1"/>
<line x1="4779935.059967998" y1="-1.7066852413440004e7" x2="-5.368768216472419e12" y2="-3.263039551633226e12" style="stroke:#47;stroke-width:1px;stroke-opacity:1"/>
<line x1="320.0" y1="39.99999999999999" x2="96.00000000000013" y2="-727.9999999999999" style="stroke:#ff;stroke-width:1px;stroke-opacity:1"/>
<line x1="96.00000000000013" y1="-727.9999999999999" x2="-16687.360000000004" y2="3900.4799999999923" style="stroke:#c1;stroke-width:1px;stroke-opacity:1"/>
<line x1="-16687.360000000004" y1="3900.4799999999923" x2="5430107.510784001" y2="-2499613.5173119977" style="stroke:#84;stroke-width:1px;stroke-opacity:1"/>
<line x1="5430107.510784001" y1="-2499613.5173119977" x2="4.646965594066545e11" y2="-5.429502476884715e11" style="stroke:#47;stroke-width:1px;stroke-opacity:1"/>
<line x1="320.0" y1="80.0" x2="320.00000000000017" y2="-496.0000000000003" style="stroke:#ff;stroke-width:1px;stroke-opacity:1"/>
<line x1="320.00000000000017" y1="-496.0000000000003" x2="-9080.32000000001" y2="-3260.8000000000075" style="stroke:#c1;stroke-width:1px;stroke-opacity:1"/>
<line x1="-9080.32000000001" y1="-3260.8000000000075" x2="1483264.053248001" y2="1284773.2582400034" style="stroke:#84;stroke-width:1px;stroke-opacity:1"/>
<line x1="1483264.053248001" y1="1284773.2582400034" x2="1.0987010925021029e10" y2="7.620417700237648e10" style="stroke:#47;stroke-width:1px;stroke-opacity:1"/>
<line x1="320.0" y1="120.0" x2="480.00000000000006" y2="-263.99999999999994" style="stroke:#ff;stroke-width:1px;stroke-opacity:1"/>
<line x1="480.00000000000006" y1="-263.99999999999994" x2="-2417.9199999999987" y2="-5076.800000000001" style="stroke:#c1;stroke-width:1px;stroke-opacity:1"/>
<line x1="-2417.9199999999987" y1="-5076.800000000001" x2="-419502.2622720001" y2="552689.6102399996" style="stroke:#84;stroke-width:1px;stroke-opacity:1"/>
<line x1="-419502.2622720001" y1="552689.6102399996" x2="-2.5818952893382416e9" y2="-9.275245451980135e9" style="stroke:#47;stroke-width:1px;stroke-opacity:1"/>
<line x1="320.0" y1="160.0" x2="576.0000000000001" y2="-31.99999999999994" style="stroke:#ff;stroke-width:1px;stroke-opacity:1"/>
<line x1="576.0000000000001" y1="-31.99999999999994" x2="2071.040000000002" y2="-3329.2799999999997" style="stroke:#c1;stroke-width:1px;stroke-opacity:1"/>
<line x1="2071.040000000002" y1="-3329.2799999999997" x2="-178780.53273599973" y2="-263976.962048" style="stroke:#84;stroke-width:1px;stroke-opacity:1"/>
<line x1="-178780.53273599973" y1="-263976.962048" x2="-7.551084035689642e8" y2="1.891301496157164e9" style="stroke:#47;stroke-width:1px;stroke-opacity:1"/>
<line x1="320.0" y1="200.0" x2="608.0000000000001" y2="200.0" style="stroke:#ff;stroke-width:1px;stroke-opacity:1"/>
<line x1="608.0000000000001" y1="200.0" x2="3649.2800000000025" y2="200.0" style="stroke:#c1;stroke-width:1px;stroke-opacity:1"/>
<line x1="3649.2800000000025" y1="200.0" x2="238270.6503680005" y2="200.0" style="stroke:#84;stroke-width:1px;stroke-opacity:1"/>
<line x1="238270.6503680005" y1="200.0" x2="1.1335530113328528e9" y2="200.0" style="stroke:#47;stroke-width:1px;stroke-opacity:1"/>
<line x1="320.0" y1="240.0" x2="576.0000000000001" y2="431.99999999999994" style="stroke:#ff;stroke-width:1px;stroke-opacity:1"/>
<line x1="576.0000000000001" y1="431.99999999999994" x2="2071.040000000002" y2="3729.2799999999997" style="stroke:#c1;stroke-width:1px;stroke-opacity:1"/>
<line x1="2071.040000000002" y1="3729.2799999999997" x2="-178780.53273599973" y2="264376.962048" style="stroke:#84;stroke-width:1px;stroke-opacity:1"/>
<line x1="-178780.53273599973" y1="264376.962048" x2="-7.551084035689642e8" y2="-1.891301096157164e9" style="stroke:#47;stroke-width:1px;stroke-opacity:1"/>
<line x1="320.0" y1="280.0" x2="480.00000000000017" y2="663.9999999999999" style="stroke:#ff;stroke-width:1px;stroke-opacity:1"/>
<line x1="480.00000000000017" y1="663.9999999999999" x2="-2417.9199999999964" y2="5476.800000000002" style="stroke:#c1;stroke-width:1px;stroke-opacity:1"/>
<line x1="-2417.9199999999964" y1="5476.800000000002" x2="-419502.262272001" y2="-552289.6102399988" style="stroke:#84;stroke-width:1px;stroke-opacity:1"/>
<line x1="-419502.262272001" y1="-552289.6102399988" x2="-2.581895289338208e9" y2="9.275245851980145e9" style="stroke:#47;stroke-width:1px;stroke-opacity:1"/>
<line x1="320.0" y1="320.0" x2="320.00000000000006" y2="896.0000000000002" style="stroke:#ff;stroke-width:1px;stroke-opacity:1"/>
<line x1="320.00000000000006" y1="896.0000000000002" x2="-9080.320000000012" y2="3660.800000000004" style="stroke:#c1;stroke-width:1px;stroke-opacity:1"/>
<line x1="-9080.320000000012" y1="3660.800000000004" x2="1483264.0532480048" y2="-1284373.2582400043" style="stroke:#84;stroke-width:1px;stroke-opacity:1"/>
<line x1="1483264.0532480048" y1="-1284373.2582400043" x2="1.0987010925021202e10" y2="-7.620417660237672e10" style="stroke:#47;stroke-width:1px;stroke-opacity:1"/>
<line x1="320.0" y1="360.0" x2="96.00000000000013" y2="1128.0" style="stroke:#ff;stroke-width:1px;stroke-opacity:1"/>
<line x1="96.00000000000013" y1="1128.0" x2="-16687.360000000004" y2="-3500.4799999999923" style="stroke:#c1;stroke-width:1px;stroke-opacity:1"/>
<line x1="-16687.360000000004" y1="-3500.4799999999923" x2="5430107.510784001" y2="2500013.5173119977" style="stroke:#84;stroke-width:1px;stroke-opacity:1"/>
<line x1="5430107.510784001" y1="2500013.5173119977" x2="4.646965594066545e11" y2="5.429502480884715e11" style="stroke:#47;stroke-width:1px;stroke-opacity:1"/>
<line x1="320.0" y1="400.0" x2="-192.00000000000017" y2="1360.0000000000002" style="stroke:#ff;stroke-width:1px;stroke-opacity:1"/>
<line x1="-192.00000000000017" y1="1360.0000000000002" x2="-23518.72000000001" y2="-17788.800000000003" style="stroke:#c1;stroke-width:1px;stroke-opacity:1"/>
<line x1="-23518.72000000001" y1="-17788.800000000003" x2="4779935.059967998" y2="1.7067252413440004e7" style="stroke:#84;stroke-width:1px;stroke-opacity:1"/>
<line x1="4779935.059967998" y1="1.7067252413440004e7" x2="-5.368768216472419e12" y2="3.263039552033226e12" style="stroke:#47;stroke-width:1px;stroke-opacity:1"/>
<line x1="360.0" y1="0.0" x2="72.00000000000001" y2="-1280.0000000000002" style="stroke:#ff;stroke-width:1px;stroke-opacity:1"/>
<line x1="72.00000000000001" y1="-1280.0000000000002" x2="-43120.32000000001" y2="7577.599999999981" style="stroke:#c1;stroke-width:1px;stroke-opacity:1"/>
<line x1="-43120.32000000001" y1="7577.599999999981" x2="3.6444782862848006e7" y2="-1.2783999713279987e7" style="stroke:#84;stroke-width:1px;stroke-opacity:1"/>
<line x1="3.6444782862848006e7" y1="-1.2783999713279987e7" x2="2.329543715511934e13" y2="-1.8636593031433215e13" style="stroke:#47;stroke-width:1px;stroke-opacity:1"/>
<line x1="360.0" y1="39.99999999999999" x2="360.00000000000006" y2="-984.0000000000006" style="stroke:#ff;stroke-width:1px;stroke-opacity:1"/>
<line x1="360.00000000000006" y1="-984.0000000000006" x2="-27165.120000000017" y2="-7537.599999999999" style="stroke:#c1;stroke-width:1px;stroke-opacity:1"/>
<line x1="-27165.120000000017" y1="-7537.599999999999" x2="1.3779946777088018e7" y2="8469654.10048001" style="stroke:#84;stroke-width:1px;stroke-opacity:1"/>
<line x1="1.3779946777088018e7" y1="8469654.10048001" x2="2.3629953699705996e12" y2="4.668277313831373e12" style="stroke:#47;stroke-width:1px;stroke-opacity:1"/>
<line x1="360.0" y1="80.0" x2="584.0" y2="-687.9999999999999" style="stroke:#ff;stroke-width:1px;stroke-opacity:1"/>
<line x1="584.0" y1="-687.9999999999999" x2="-12461.759999999993" y2="-13559.679999999991" style="stroke:#c1;stroke-width:1px;stroke-opacity:1"/>
<line x1="-12461.759999999993" y1="-13559.679999999991" x2="-579812.5480960007" y2="6968950.6334719965" style="stroke:#84;stroke-width:1px;stroke-opacity:1"/>
<line x1="-579812.5480960007" y1="6968950.6334719965" x2="-9.645414163513502e11" y2="-1.6167851239862805e11" style="stroke:#47;stroke-width:1px;stroke-opacity:1"/>
<line x1="360.0" y1="120.0" x2="744.0000000000001" y2="-392.00000000000006" style="stroke:#ff;stroke-width:1px;stroke-opacity:1"/>
<line x1="744.0000000000001" y1="-392.00000000000006" x2="-730.5600000000009" y2="-12761.920000000006" style="stroke:#c1;stroke-width:1px;stroke-opacity:1"/>
<line x1="-730.5600000000009" y1="-12761.920000000006" x2="-3342548.5634560008" y2="482593.7710079989" style="stroke:#84;stroke-width:1px;stroke-opacity:1"/>
<line x1="-3342548.5634560008" y1="482593.7710079989" x2="2.1882528452359653e11" y2="-6.45008432822845e10" style="stroke:#47;stroke-width:1px;stroke-opacity:1"/>
<line x1="360.0" y1="160.0" x2="840.0000000000002" y2="-96.0" style="stroke:#ff;stroke-width:1px;stroke-opacity:1"/>
<line x1="840.0000000000002" y1="-96.0" x2="6799.680000000004" y2="-7417.600000000001" style="stroke:#c1;stroke-width:1px;stroke-opacity:1"/>
<line x1="6799.680000000004" y1="-7417.600000000001" x2="-289081.07315199985" y2="-2010788.8947200018" style="stroke:#84;stroke-width:1px;stroke-opacity:1"/>
<line x1="-289081.07315199985" y1="-2010788.8947200018" x2="-7.920785554806396e10" y2="2.3269641182454197e10" style="stroke:#47;stroke-width:1px;stroke-opacity:1"/>
<line x1="360.0" y1="200.0" x2="872.0000000000001" y2="200.0" style="stroke:#ff;stroke-width:1px;stroke-opacity:1"/>
<line x1="872.0000000000001" y1="200.0" x2="9391.68" y2="200.0" style="stroke:#c1;stroke-width:1px;stroke-opacity:1"/>
<line x1="9391.68" y1="200.0" x2="1690099.624447999" y2="200.0" style="stroke:#84;stroke-width:1px;stroke-opacity:1"/>
<line x1="1690099.624447999" y1="200.0" x2="5.711521517418967e10" y2="200.0" style="stroke:#47;stroke-width:1px;stroke-opacity:1"/>
<line x1="360.0" y1="240.0" x2="840.0000000000002" y2="496.0" style="stroke:#ff;stroke-width:1px;stroke-opacity:1"/>
<line x1="840.0000000000002" y1="496.0" x2="6799.680000000004" y2="7817.600000000001" style="stroke:#c1;stroke-width:1px;stroke-opacity:1"/>
<line x1="6799.680000000004" y1="7817.600000000001" x2="-289081.07315199985" y2="2011188.8947200018" style="stroke:#84;stroke-width:1px;stroke-opacity:1"/>
<line x1="-289081.07315199985" y1="2011188.8947200018" x2="-7.920785554806396e10" y2="-2.3269640782454197e10" style="stroke:#47;stroke-width:1px;stroke-opacity:1"/>
<line x1="360.0" y1="280.0" x2="744.0" y2="791.9999999999999" style="stroke:#ff;stroke-width:1px;stroke-opacity:1"/>
<line x1="744.0" y1="791.9999999999999" x2="-730.5599999999972" y2="13161.919999999995" style="stroke:#c1;stroke-width:1px;stroke-opacity:1"/>
<line x1="-730.5599999999972" y1="13161.919999999995" x2="-3342548.5634559956" y2="-482193.7710079966" style="stroke:#84;stroke-width:1px;stroke-opacity:1"/>
<line x1="-3342548.5634559956" y1="-482193.7710079966" x2="2.1882528452359583e11" y2="6.450084368228408e10" style="stroke:#47;stroke-width:1px;stroke-opacity:1"/>
<line x1="360.0" y1="320.0" x2="583.9999999999998" y2="1088.0" style="stroke:#ff;stroke-width:1px;stroke-opacity:1"/>
<line x1="583.9999999999998" y1="1088.0" x2="-12461.759999999998" y2="13959.67999999999" style="stroke:#c1;stroke-width:1px;stroke-opacity:1"/>
<line x1="-12461.759999999998" y1="13959.67999999999" x2="-579812.5480959945" y2="-6968550.6334719965" style="stroke:#84;stroke-width:1px;stroke-opacity:1"/>
<line x1="-579812.5480959945" y1="-6968550.6334719965" x2="-9.645414163513506e11" y2="1.6167851279862634e11" style="stroke:#47;stroke-width:1px;stroke-opacity:1"/>
<line x1="360.0" y1="360.0" x2="360.00000000000006" y2="1384.0000000000005" style="stroke:#ff;stroke-width:1px;stroke-opacity:1"/>
<line x1="360.00000000000006" y1="1384.0000000000005" x2="-27165.120000000017" y2="7937.599999999999" style="stroke:#c1;stroke-width:1px;stroke-opacity:1"/>
<line x1="-27165.120000000017" y1="7937.599999999999" x2="1.3779946777088018e7" y2="-8469254.10048001" style="stroke:#84;stroke-width:1px;stroke-opacity:1"/>
<line x1="1.3779946777088018e7" y1="-8469254.10048001" x2="2.3629953699705996e12" y2="-4.668277313431373e12" style="stroke:#47;stroke-width:1px;stroke-opacity:1"/>
<line x1="360.0" y1="400.0" x2="72.00000000000001" y2="1680.0000000000005" style="stroke:#ff;stroke-width:1px;stroke-opacity:1"/>
<line x1="72.00000000000001" y1="1680.0000000000005" x2="-43120.32000000001" y2="-7177.599999999981" style="stroke:#c1;stroke-width:1px;stroke-opacity:1"/>
<line x1="-43120.32000000001" y1="-7177.599999999981" x2="3.6444782862848006e7" y2="1.2784399713279987e7" style="stroke:#84;stroke-width:1px;stroke-opacity:1"/>
<line x1="3.6444782862848006e7" y1="1.2784399713279987e7" x2="2.329543715511934e13" y2="1.8636593031833215e13" style="stroke:#47;stroke-width:1px;stroke-opacity:1"/>
<line x1="400.0" y1="0.0" x2="400.0000000000001" y2="-1600.0" style="stroke:#ff;stroke-width:1px;stroke-opacity:1"/>
<line x1="400.0000000000001" y1="-1600.0" x2="-63600.00000000004" y2="-14400.000000000015" style="stroke:#c1;stroke-width:1px;stroke-opacity:1"/>
<line x1="-63600.00000000004" y1="-14400.000000000015" x2="7.714600000000007e7" y2="3.725920000000009e7" style="stroke:#84;stroke-width:1px;stroke-opacity:1"/>
<line x1="7.714600000000007e7" y1="3.725920000000009e7" x2="9.126482753319997e13" y2="1.1497501448800019e14" style="stroke:#47;stroke-width:1px;stroke-opacity:1"/>
<line x1="400.0" y1="39.99999999999999" x2="687.9999999999999" y2="-1240.0000000000005" style="stroke:#ff;stroke-width:1px;stroke-opacity:1"/>
<line x1="687.9999999999999" y1="-1240.0000000000005" x2="-36309.120000000024" y2="-28068.8" style="stroke:#c1;stroke-width:1px;stroke-opacity:1"/>
<line x1="-36309.120000000024" y1="-28068.8" x2="1.0676215794688035e7" y2="4.128280045824003e7" style="stroke:#84;stroke-width:1px;stroke-opacity:1"/>
<line x1="1.0676215794688035e7" y1="4.128280045824003e7" x2="-3.180551574652498e13" y2="1.7629347781558605e13" style="stroke:#47;stroke-width:1px;stroke-opacity:1"/>
<line x1="400.0" y1="80.0" x2="911.9999999999998" y2="-879.9999999999998" style="stroke:#ff;stroke-width:1px;stroke-opacity:1"/>
<line x1="911.9999999999998" y1="-879.9999999999998" x2="-12789.119999999997" y2="-30678.399999999987" style="stroke:#c1;stroke-width:1px;stroke-opacity:1"/>
<line x1="-12789.119999999997" y1="-30678.399999999987" x2="-1.569476696371198e7" y2="1.604340972031998e7" style="stroke:#84;stroke-width:1px;stroke-opacity:1"/>
<line x1="-1.569476696371198e7" y1="1.604340972031998e7" x2="-2.210518023631865e11" y2="-1.0071905862012996e13" style="stroke:#47;stroke-width:1px;stroke-opacity:1"/>
<line x1="400.0" y1="120.0" x2="1072.0" y2="-520.0000000000001" style="stroke:#ff;stroke-width:1px;stroke-opacity:1"/>
<line x1="1072.0" y1="-520.0000000000001" x2="5239.680000000003" y2="-24993.600000000013" style="stroke:#c1;stroke-width:1px;stroke-opacity:1"/>
<line x1="5239.680000000003" y1="-24993.600000000013" x2="-1.2185982129152022e7" y2="-5078587.28192001" style="stroke:#84;stroke-width:1px;stroke-opacity:1"/>
<line x1="-1.2185982129152022e7" y1="-5078587.28192001" x2="2.454179092997433e12" y2="2.4756410726279297e12" style="stroke:#47;stroke-width:1px;stroke-opacity:1"/>
<line x1="400.0" y1="160.0" x2="1168.0000000000002" y2="-160.0" style="stroke:#ff;stroke-width:1px;stroke-opacity:1"/>
<line x1="1168.0000000000002" y1="-160.0" x2="16548.480000000007" y2="-13779.199999999997" style="stroke:#c1;stroke-width:1px;stroke-opacity:1"/>
<line x1="16548.480000000007" y1="-13779.199999999997" x2="1437495.313408006" y2="-9141386.864639996" style="stroke:#84;stroke-width:1px;stroke-opacity:1"/>
<line x1="1437495.313408006" y1="-9141386.864639996" x2="-1.6300558513162793e12" y2="-5.255663981463709e11" style="stroke:#47;stroke-width:1px;stroke-opacity:1"/>
<line x1="400.0" y1="200.0" x2="1200.0" y2="200.0" style="stroke:#ff;stroke-width:1px;stroke-opacity:1"/>
<line x1="1200.0" y1="200.0" x2="20399.999999999993" y2="200.0" style="stroke:#c1;stroke-width:1px;stroke-opacity:1"/>
<line x1="20399.999999999993" y1="200.0" x2="8161199.999999993" y2="200.0" style="stroke:#84;stroke-width:1px;stroke-opacity:1"/>
<line x1="8161199.999999993" y1="200.0" x2="1.3320384203999968e12" y2="200.0" style="stroke:#47;stroke-width:1px;stroke-opacity:1"/>
<line x1="400.0" y1="240.0" x2="1168.0000000000002" y2="560.0" style="stroke:#ff;stroke-width:1px;stroke-opacity:1"/>
<line x1="1168.0000000000002" y1="560.0" x2="16548.480000000007" y2="14179.199999999997" style="stroke:#c1;stroke-width:1px;stroke-opacity:1"/>
<line x1="16548.480000000007" y1="14179.199999999997" x2="1437495.313408006" y2="9141786.864639996" style="stroke:#84;stroke-width:1px;stroke-opacity:1"/>
<line x1="1437495.313408006" y1="9141786.864639996" x2="-1.6300558513162793e12" y2="5.255663985463709e11" style="stroke:#47;stroke-width:1px;stroke-opacity:1"/>
<line x1="400.0" y1="280.0" x2="1072.0" y2="919.9999999999995" style="stroke:#ff;stroke-width:1px;stroke-opacity:1"/>
<line x1="1072.0" y1="919.9999999999995" x2="5239.680000000005" y2="25393.59999999999" style="stroke:#c1;stroke-width:1px;stroke-opacity:1"/>
<line x1="5239.680000000005" y1="25393.59999999999" x2="-1.2185982129151998e7" y2="5078987.2819200065" style="stroke:#84;stroke-width:1px;stroke-opacity:1"/>
<line x1="-1.2185982129151998e7" y1="5078987.2819200065" x2="2.454179092997422e12" y2="-2.4756410722279224e12" style="stroke:#47;stroke-width:1px;stroke-opacity:1"/>
<line x1="400.0" y1="320.0" x2="911.9999999999998" y2="1280.0000000000005" style="stroke:#ff;stroke-width:1px;stroke-opacity:1"/>
<line x1="911.9999999999998" y1="1280.0000000000005" x2="-12789.120000000028" y2="31078.400000000005" style="stroke:#c1;stroke-width:1px;stroke-opacity:1"/>
<line x1="-12789.120000000028" y1="31078.400000000005" x2="-1.569476696371199e7" y2="-1.6043009720320031e7" style="stroke:#84;stroke-width:1px;stroke-opacity:1"/>
<line x1="-1.569476696371199e7" y1="-1.6043009720320031e7" x2="-2.210518023632052e11" y2="1.0071905862413031e13" style="stroke:#47;stroke-width:1px;stroke-opacity:1"/>
<line x1="400.0" y1="360.0" x2="687.9999999999999" y2="1640.0000000000005" style="stroke:#ff;stroke-width:1px;stroke-opacity:1"/>
<line x1="687.9999999999999" y1="1640.0000000000005" x2="-36309.120000000024" y2="28468.8" style="stroke:#c1;stroke-width:1px;stroke-opacity:1"/>
<line x1="-36309.120000000024" y1="28468.8" x2="1.0676215794688035e7" y2="-4.128240045824003e7" style="stroke:#84;stroke-width:1px;stroke-opacity:1"/>
<line x1="1.0676215794688035e7" y1="-4.128240045824003e7" x2="-3.180551574652498e13" y2="-1.7629347781158605e13" style="stroke:#47;stroke-width:1px;stroke-opacity:1"/>
<line x1="400.0" y1="400.0" x2="400.0000000000001" y2="2000.0" style="stroke:#ff;stroke-width:1px;stroke-opacity:1"/>
<line x1="400.0000000000001" y1="2000.0" x2="-63600.00000000004" y2="14800.000000000015" style="stroke:#c1;stroke-width:1px;stroke-opacity:1"/>
<line x1="-63600.00000000004" y1="14800.000000000015" x2="7.714600000000007e7" y2="-3.725880000000009e7" style="stroke:#84;stroke-width:1px;stroke-opacity:1"/>
<line x1="7.714600000000007e7" y1="-3.725880000000009e7" x2="9.126482753319997e13" y2="-1.1497501448760019e14" style="stroke:#47;stroke-width:1px;stroke-opacity:1"/>

</svg>

